<?xml version='1.0' encoding='utf-8'?>
<svg xmlns="http://www.w3.org/2000/svg" xmlns:ns1="http://www.serif.com/" viewBox="0 0 750 1050" width="750" height="1050" version="1.1" preserveAspectRatio="xMidYMid meet" style="fill-rule:evenodd;clip-rule:evenodd;stroke-linecap:round;stroke-linejoin:round;"><g transform="translate(-2250, -4200)"><g transform="matrix(0.24,0,0,0.24,2625,4725)">
        <g transform="matrix(1,0,0,1,-1562.5,-2187.5)">
            <g transform="matrix(4.166667,0,0,4.166667,0,0)">
                <path d="M750,37.5C750,16.803 733.197,0 712.5,0L37.5,0C16.803,0 0,16.803 0,37.5L0,1012.5C0,1033.197 16.803,1050 37.5,1050L712.5,1050C733.197,1050 750,1033.197 750,1012.5L750,37.5Z" style="fill:white;" />
            </g>
            <g id="diamonds" transform="matrix(4.166667,0,0,4.166667,0,0)">
                <g>
                    <g>
                        <g transform="matrix(7.420651,0,0,7.420651,8.597089,-2.163925)">
                            <path d="M3.901,17L6.769,4.334L8.231,4.334L11.099,17L12,17L12,18.5L8.5,18.5L8.5,17L9.561,17L9.165,15.25L5.835,15.25L5.439,17L6.5,17L6.5,18.5L3,18.5L3,17L3.901,17ZM6.175,13.75L8.825,13.75L7.5,7.896L6.175,13.75Z" style="fill:rgb(204,0,0);" />
                        </g>
                        <g transform="matrix(-7.420651,0,0,-7.420651,741.402911,1052.163925)">
                            <path d="M3.901,17L6.769,4.334L8.231,4.334L11.099,17L12,17L12,18.5L8.5,18.5L8.5,17L9.561,17L9.165,15.25L5.835,15.25L5.439,17L6.5,17L6.5,18.5L3,18.5L3,17L3.901,17ZM6.175,13.75L8.825,13.75L7.5,7.896L6.175,13.75Z" style="fill:rgb(204,0,0);" />
                        </g>
                        <g id="j" transform="matrix(12.760687,0,0,12.760687,-4023.633446,-1988.991369)">
                            <path d="M320.35,173.68C319.76,172.646 319.058,171.68 318.257,170.799C319.058,169.918 319.76,168.952 320.35,167.917C320.94,168.952 321.642,169.918 322.443,170.799C321.642,171.68 320.94,172.646 320.35,173.68Z" style="fill:rgb(204,0,0);" />
                        </g>
                        <g id="j1" ns1:id="j" transform="matrix(12.760687,0,0,12.760687,-3402.137384,-1320.026103)">
                            <path d="M320.35,173.68C319.76,172.646 319.058,171.68 318.257,170.799C319.058,169.918 319.76,168.952 320.35,167.917C320.94,168.952 321.642,169.918 322.443,170.799C321.642,171.68 320.94,172.646 320.35,173.68Z" style="fill:rgb(204,0,0);" />
                        </g>
                    </g>
                    <g id="j2" ns1:id="j" transform="matrix(33.838892,0,0,33.838892,-10465.287414,-5254.638792)">
                        <path d="M320.35,173.68C319.76,172.646 319.058,171.68 318.257,170.799C319.058,169.918 319.76,168.952 320.35,167.917C320.94,168.952 321.642,169.918 322.443,170.799C321.642,171.68 320.94,172.646 320.35,173.68Z" style="fill:rgb(204,0,0);" />
                    </g>
                </g>
            </g>
        </g>
    </g>
    </g></svg>